<svg width="20" height="20" viewBox="0 0 20 20" fill="none" xmlns="http://www.w3.org/2000/svg">
<path fill-rule="evenodd" clip-rule="evenodd" d="M19.9241 8.02005L18.0653 4.82585C18.0654 4.82201 18.0659 4.81825 18.0659 4.81434V2.86731C18.0659 2.65121 17.8903 2.47597 17.6738 2.47597H14.1917C13.8084 1.77661 13.2547 1.18349 12.5788 0.750671C11.8121 0.259575 10.9231 0 10.0081 0C9.09308 0 8.20419 0.259575 7.43732 0.750671C6.76142 1.18349 6.20787 1.77661 5.82455 2.47597H2.34246C2.1259 2.47597 1.95036 2.65121 1.95036 2.86731V4.7279L0.0509538 8.05718C0.00907693 8.13072 -0.00676414 8.21427 0.00260721 8.29562V9.61543C0.00260721 10.3968 0.393889 11.0883 0.99079 11.5062V19.5803C0.99079 19.7964 1.16638 19.9716 1.3829 19.9716H12.5802H16.4228H18.6322C18.8488 19.9716 19.0243 19.7964 19.0243 19.5803V11.4974C19.6141 11.0786 20 10.3913 20 9.61543V8.2508C20 8.16438 19.9716 8.08484 19.9241 8.02005Z" fill="#9BA1B2" fill-opacity="0.3"/>
<path fill-rule="evenodd" clip-rule="evenodd" d="M13.844 15.8678C13.6274 15.8678 13.4518 16.043 13.4518 16.2592V17.0449C13.4518 17.2611 13.6274 17.4363 13.844 17.4363C14.0605 17.4363 14.2361 17.2611 14.2361 17.0449V16.2592C14.2361 16.043 14.0605 15.8678 13.844 15.8678ZM19.2158 9.61543C19.2158 10.1885 18.8975 10.6887 18.4282 10.9496C18.4046 10.9626 18.3808 10.9752 18.3565 10.987C18.3547 10.9879 18.3528 10.989 18.3509 10.9899C18.3233 11.0032 18.2953 11.0155 18.267 11.0271C18.2621 11.0291 18.257 11.031 18.252 11.033C18.2274 11.0428 18.2026 11.052 18.1776 11.0605C18.1731 11.062 18.1687 11.0635 18.1641 11.065C18.1042 11.0847 18.0432 11.1007 17.9813 11.1129C17.9797 11.1132 17.9781 11.1134 17.9765 11.1138C17.9487 11.1192 17.9207 11.1236 17.8926 11.1275C17.8857 11.1283 17.8789 11.1292 17.8721 11.13C17.8483 11.1329 17.8245 11.1351 17.8006 11.137C17.793 11.1375 17.7854 11.1382 17.7778 11.1387C17.7475 11.1405 17.717 11.1416 17.6866 11.1416C17.6628 11.1416 17.6392 11.1409 17.6155 11.1398C17.606 11.1393 17.5965 11.1387 17.5871 11.138C17.5738 11.1372 17.5605 11.1362 17.5473 11.135C17.5347 11.1339 17.5221 11.1325 17.5094 11.1311C17.5009 11.1301 17.4924 11.1289 17.4839 11.1278C17.468 11.1257 17.4521 11.1235 17.4363 11.1208C17.4358 11.1208 17.4354 11.1207 17.4348 11.1206C17.032 11.0528 16.674 10.8252 16.4402 10.498C16.4355 10.4914 16.4307 10.485 16.4261 10.4783C16.4193 10.4684 16.4126 10.4582 16.4059 10.448C16.3999 10.4387 16.3938 10.4295 16.388 10.4201C16.3821 10.4108 16.3765 10.4015 16.3708 10.392C16.3645 10.3813 16.3583 10.3704 16.3521 10.3595C16.3472 10.3508 16.3423 10.342 16.3375 10.3332C16.3308 10.3207 16.3244 10.3081 16.3181 10.2954C16.3142 10.2877 16.3101 10.28 16.3064 10.2721C16.297 10.2524 16.2879 10.2326 16.2793 10.2125C16.2753 10.203 16.2717 10.1934 16.2678 10.1839C16.2632 10.1725 16.2586 10.1612 16.2543 10.1496C16.2498 10.1377 16.2455 10.1254 16.2413 10.1133C16.2383 10.1044 16.2352 10.0956 16.2323 10.0866C16.2278 10.0729 16.2236 10.0591 16.2195 10.0453C16.1793 9.90883 16.1574 9.76464 16.1574 9.61543V8.64219H19.2158V9.61543ZM18.2401 11.8571V19.189H16.8149V15.1914C16.8149 13.9183 15.7772 12.8825 14.5015 12.8825C13.2258 12.8825 12.1881 13.9183 12.1881 15.1914V19.189H1.775V11.8602C1.77916 11.8612 1.78336 11.8618 1.78747 11.8628C1.82304 11.8712 1.85896 11.8786 1.89514 11.8853C1.904 11.887 1.91291 11.8886 1.92177 11.8901C1.95545 11.8959 1.98933 11.9009 2.02344 11.9052C2.0338 11.9065 2.04403 11.908 2.05438 11.9092C2.08779 11.913 2.12139 11.9158 2.15511 11.9182C2.16542 11.9188 2.17569 11.9199 2.18597 11.9204C2.22906 11.9228 2.27235 11.9243 2.31603 11.9243C2.35085 11.9243 2.38543 11.9232 2.4199 11.9217C2.42888 11.9213 2.43778 11.9209 2.44668 11.9204C2.47773 11.9186 2.50867 11.9164 2.53945 11.9134C2.55326 11.912 2.56686 11.9104 2.58059 11.9088C2.59736 11.9068 2.61415 11.9047 2.63081 11.9023C3.26947 11.8152 3.82575 11.4672 4.18814 10.9695C4.19657 10.958 4.20477 10.9464 4.21296 10.9347C4.22108 10.9231 4.22943 10.9117 4.23735 10.9C4.24523 10.9117 4.25354 10.923 4.26166 10.9346C4.26989 10.9464 4.27817 10.9581 4.28664 10.9696C4.32518 11.0225 4.366 11.0738 4.40885 11.1231C4.40893 11.1233 4.40901 11.1234 4.40913 11.1235C4.76873 11.5385 5.27333 11.8245 5.84384 11.9023C5.86055 11.9047 5.87733 11.9068 5.89415 11.9088C5.90784 11.9104 5.92144 11.912 5.93524 11.9134C5.96602 11.9164 5.99696 11.9186 6.02802 11.9204C6.03692 11.9209 6.04582 11.9213 6.0548 11.9217C6.08926 11.9232 6.12385 11.9243 6.15867 11.9243C6.19349 11.9243 6.22807 11.9232 6.26253 11.9217C6.27152 11.9213 6.28041 11.9209 6.28931 11.9204C6.32037 11.9186 6.35131 11.9164 6.38209 11.9134C6.39589 11.912 6.40949 11.9104 6.42322 11.9088C6.44 11.9068 6.45679 11.9047 6.47345 11.9023C7.11212 11.8152 7.66841 11.4672 8.0308 10.9695C8.03922 10.958 8.04743 10.9464 8.05558 10.9347C8.06373 10.9231 8.07208 10.9117 8.07996 10.9C8.08784 10.9117 8.09619 10.923 8.10427 10.9346C8.11255 10.9464 8.12083 10.9581 8.12925 10.9696C8.16779 11.0225 8.20866 11.0738 8.25147 11.1231C8.25154 11.1233 8.25167 11.1234 8.25174 11.1235C8.6114 11.5385 9.11598 11.8245 9.68649 11.9023C9.70319 11.9047 9.71996 11.9068 9.73679 11.9088C9.75048 11.9104 9.7641 11.912 9.77786 11.9134C9.80865 11.9164 9.83957 11.9186 9.87063 11.9204C9.87958 11.9209 9.88846 11.9213 9.89741 11.9217C9.93188 11.9232 9.96647 11.9243 10.0013 11.9243C10.0361 11.9243 10.0707 11.9232 10.1052 11.9217C10.1141 11.9213 10.123 11.9209 10.132 11.9204C10.163 11.9186 10.194 11.9164 10.2247 11.9134C10.2385 11.912 10.2521 11.9104 10.2659 11.9088C10.2826 11.9068 10.2994 11.9047 10.3161 11.9023C10.9547 11.8152 11.511 11.4672 11.8734 10.9695C11.8818 10.958 11.8901 10.9464 11.8982 10.9347C11.9063 10.9231 11.9147 10.9117 11.9226 10.9C11.9305 10.9117 11.9388 10.923 11.947 10.9346C11.9552 10.9464 11.9635 10.9581 11.9719 10.9696C12.0105 11.0225 12.0513 11.0738 12.0942 11.1231C12.0942 11.1233 12.0943 11.1234 12.0944 11.1235C12.454 11.5385 12.9586 11.8245 13.5291 11.9023C13.5458 11.9047 13.5626 11.9068 13.5794 11.9088C13.5931 11.9104 13.6067 11.912 13.6205 11.9134C13.6513 11.9164 13.6823 11.9186 13.7133 11.9204C13.7222 11.9209 13.7311 11.9213 13.7401 11.9217C13.7746 11.9232 13.8091 11.9243 13.844 11.9243C13.8788 11.9243 13.9133 11.9232 13.9478 11.9217C13.9568 11.9213 13.9657 11.9209 13.9746 11.9204C14.0056 11.9186 14.0366 11.9164 14.0674 11.9134C14.0812 11.912 14.0947 11.9104 14.1085 11.9088C14.1253 11.9068 14.142 11.9047 14.1587 11.9023C14.7974 11.8152 15.3536 11.4672 15.716 10.9695C15.7245 10.958 15.7327 10.9464 15.7409 10.9347C15.749 10.9231 15.7573 10.9117 15.7653 10.9C15.7731 10.9117 15.7814 10.923 15.7896 10.9346C15.7978 10.9464 15.8061 10.9581 15.8146 10.9696C15.8531 11.0225 15.8939 11.0738 15.9368 11.1231C15.9368 11.1233 15.9369 11.1234 15.937 11.1235C16.2966 11.5385 16.8012 11.8245 17.3717 11.9023C17.3884 11.9047 17.4053 11.9068 17.4221 11.9088C17.4357 11.9104 17.4493 11.912 17.4632 11.9134C17.494 11.9164 17.5249 11.9186 17.5559 11.9204C17.5648 11.9209 17.5737 11.9213 17.5827 11.9217C17.6172 11.9232 17.6518 11.9243 17.6866 11.9243C17.7309 11.9243 17.7749 11.9228 17.8185 11.9203C17.8294 11.9197 17.8402 11.9186 17.851 11.9178C17.8851 11.9154 17.919 11.9124 17.9526 11.9086C17.9633 11.9074 17.974 11.9059 17.9847 11.9045C18.0199 11.8999 18.0548 11.8947 18.0894 11.8886C18.0977 11.8871 18.1061 11.8856 18.1143 11.8841C18.1547 11.8766 18.1947 11.868 18.2343 11.8583C18.2362 11.8579 18.2381 11.8576 18.2401 11.8571ZM12.9723 19.189V15.1914C12.9723 14.3498 13.6583 13.6652 14.5015 13.6652C15.3447 13.6652 16.0307 14.3498 16.0307 15.1914V19.189H12.9723ZM0.786817 8.64219H3.84524V9.61543C3.84524 9.7641 3.82344 9.9077 3.78356 10.0436C3.77917 10.0584 3.77466 10.0731 3.76992 10.0878C3.76741 10.0955 3.7647 10.1031 3.76212 10.1108C3.75753 10.1241 3.75294 10.1375 3.74796 10.1506C3.74443 10.16 3.74067 10.1692 3.73691 10.1785C3.73094 10.1935 3.72486 10.2084 3.71844 10.2231C3.71134 10.2393 3.70417 10.2554 3.69656 10.2714C3.69216 10.2806 3.68738 10.2897 3.68275 10.2987C3.67711 10.31 3.6715 10.3212 3.66558 10.3322C3.66033 10.342 3.65492 10.3516 3.64947 10.3613C3.64386 10.3711 3.63821 10.3811 3.63237 10.3908C3.62633 10.4011 3.62017 10.4112 3.6139 10.4212C3.60861 10.4297 3.60315 10.4381 3.59775 10.4463C3.59053 10.4574 3.58332 10.4684 3.57587 10.4792C3.57214 10.4846 3.5683 10.4898 3.56446 10.4952C3.33064 10.8239 2.97163 11.0527 2.56756 11.1206C2.56714 11.1207 2.56674 11.1208 2.56635 11.1208C2.55051 11.1235 2.53459 11.1257 2.51863 11.1278C2.5102 11.1289 2.50169 11.1301 2.49322 11.1311C2.4806 11.1325 2.46793 11.1339 2.4553 11.135C2.44209 11.1362 2.4288 11.1372 2.41555 11.138C2.40605 11.1387 2.39657 11.1393 2.38704 11.1398C2.36348 11.1409 2.33983 11.1416 2.31603 11.1416C2.28588 11.1416 2.25584 11.1406 2.22581 11.1388C2.2182 11.1383 2.21063 11.1375 2.20298 11.137C2.17965 11.1353 2.15649 11.1331 2.13327 11.1304C2.12602 11.1295 2.1188 11.1286 2.11158 11.1277C2.08586 11.1241 2.06026 11.12 2.03474 11.1153C2.03093 11.1146 2.02713 11.114 2.02328 11.1133C1.9631 11.1015 1.90365 11.0861 1.84538 11.0674C1.83955 11.0655 1.83378 11.0634 1.82798 11.0615C1.80598 11.0541 1.78422 11.0462 1.76261 11.0378C1.7543 11.0346 1.74599 11.0314 1.73779 11.028C1.71764 11.0198 1.69779 11.011 1.67804 11.002C1.67046 10.9984 1.6627 10.9952 1.65518 10.9916C1.63087 10.98 1.60699 10.9676 1.58331 10.9547C1.10913 10.6952 0.786817 10.1922 0.786817 9.61543V8.64219ZM2.58019 5.20568H4.95321L3.96205 7.85949H1.06619L2.58019 5.20568ZM2.73456 3.25865H6.06386C6.21454 3.25865 6.35194 3.17248 6.41722 3.03691C6.73777 2.37171 7.23695 1.80897 7.86083 1.40941C8.50099 0.999406 9.24355 0.782683 10.0081 0.782683C10.7727 0.782683 11.5152 0.999406 12.1554 1.40941C12.7793 1.80897 13.2785 2.37171 13.599 3.03691C13.6643 3.17248 13.8017 3.25865 13.9524 3.25865H17.2817V4.423H11.2697H11.2657H8.75366C8.75219 4.423 8.75072 4.42296 8.74925 4.423H2.73456V3.25865ZM16.0572 7.85949L15.0661 5.20568H17.3795L18.9238 7.85949H16.0572ZM14.2292 5.20568L15.2203 7.85949H12.2648L11.7414 5.20568H14.2292ZM10.9423 5.20568L11.4655 7.85949H8.55376L9.07705 5.20568H10.9423ZM8.27785 5.20568L7.75457 7.85949H4.79896L5.79012 5.20568H8.27785ZM6.40899 11.1208C6.39314 11.1235 6.37723 11.1257 6.36127 11.1278C6.35284 11.1289 6.34433 11.1301 6.33586 11.1311C6.32323 11.1325 6.31057 11.1339 6.29794 11.135C6.28473 11.1362 6.27144 11.1372 6.25818 11.138C6.24869 11.1387 6.2392 11.1393 6.22968 11.1398C6.20611 11.1409 6.18247 11.1416 6.15867 11.1416C6.13487 11.1416 6.11122 11.1409 6.08762 11.1398C6.07813 11.1393 6.06864 11.1387 6.05919 11.138C6.0459 11.1372 6.03261 11.1362 6.01939 11.135C6.00677 11.1339 5.99414 11.1325 5.98151 11.1311C5.973 11.1301 5.9645 11.1289 5.95595 11.1278C5.94007 11.1257 5.92419 11.1235 5.90843 11.1208C5.90788 11.1208 5.90744 11.1207 5.9069 11.1206C5.50409 11.0528 5.14605 10.8252 4.91224 10.498C4.90758 10.4914 4.90283 10.485 4.89824 10.4783C4.89134 10.4684 4.88468 10.4582 4.87801 10.448C4.87197 10.4387 4.86594 10.4295 4.86009 10.4201C4.85425 10.4108 4.8486 10.4015 4.84295 10.392C4.83656 10.3813 4.83037 10.3704 4.82421 10.3595C4.81931 10.3508 4.81437 10.342 4.80963 10.3332C4.80292 10.3207 4.79653 10.3081 4.79022 10.2954C4.7863 10.2877 4.78222 10.28 4.7785 10.2721C4.76904 10.2524 4.75999 10.2326 4.7514 10.2125C4.74736 10.203 4.74375 10.1934 4.73987 10.1839C4.73532 10.1725 4.73065 10.1612 4.72638 10.1496C4.72183 10.1377 4.71764 10.1254 4.71344 10.1133C4.71034 10.1044 4.70728 10.0956 4.70439 10.0866C4.69995 10.0729 4.69564 10.0591 4.6916 10.0453C4.65141 9.90883 4.62946 9.76464 4.62946 9.61543V8.64219H7.68791V9.61543C7.68791 9.7641 7.66607 9.9077 7.6262 10.0436C7.62179 10.0584 7.61731 10.0731 7.61257 10.0878C7.61003 10.0955 7.60736 10.1031 7.60476 10.1108C7.60015 10.1241 7.59561 10.1375 7.5906 10.1506C7.58706 10.16 7.58332 10.1692 7.57951 10.1785C7.57357 10.1935 7.56749 10.2084 7.56108 10.2231C7.554 10.2393 7.54678 10.2554 7.53917 10.2714C7.53483 10.2806 7.53002 10.2897 7.52541 10.2987C7.51974 10.31 7.51413 10.3212 7.50825 10.3322C7.50297 10.342 7.49756 10.3516 7.49209 10.3613C7.48648 10.3711 7.48087 10.3811 7.47499 10.3908C7.46898 10.4011 7.46283 10.4112 7.45655 10.4212C7.45121 10.4297 7.4458 10.4381 7.44039 10.4463C7.43318 10.4574 7.42596 10.4684 7.41848 10.4792C7.41474 10.4846 7.41094 10.4898 7.40706 10.4952C7.1733 10.8239 6.81425 11.0527 6.4102 11.1206C6.40977 11.1207 6.40938 11.1208 6.40899 11.1208ZM10.2516 11.1208C10.2358 11.1235 10.2199 11.1257 10.2039 11.1278C10.1955 11.1289 10.1869 11.1301 10.1785 11.1311C10.1658 11.1325 10.1532 11.1339 10.1406 11.135C10.1274 11.1362 10.1141 11.1372 10.1009 11.138C10.0913 11.1387 10.0818 11.1393 10.0723 11.1398C10.0488 11.1409 10.0251 11.1416 10.0013 11.1416C9.97749 11.1416 9.95385 11.1409 9.93027 11.1398C9.92079 11.1393 9.9113 11.1387 9.90182 11.138C9.88853 11.1372 9.87524 11.1362 9.86201 11.135C9.84939 11.1339 9.83677 11.1325 9.82415 11.1311C9.81566 11.1301 9.80711 11.1289 9.79857 11.1278C9.78274 11.1257 9.76684 11.1235 9.75108 11.1208C9.75054 11.1208 9.75008 11.1207 9.74954 11.1206C9.34674 11.0528 8.98869 10.8252 8.75486 10.498C8.75018 10.4914 8.74544 10.485 8.7409 10.4783C8.73395 10.4684 8.72734 10.4582 8.72066 10.448C8.71459 10.4387 8.70857 10.4295 8.7027 10.4201C8.69689 10.4108 8.69121 10.4015 8.6856 10.392C8.67919 10.3813 8.67298 10.3704 8.66683 10.3595C8.66196 10.3508 8.65701 10.342 8.65227 10.3332C8.64553 10.3207 8.63918 10.3081 8.63284 10.2954C8.62896 10.2877 8.62482 10.28 8.62115 10.2721C8.61166 10.2524 8.60265 10.2326 8.59403 10.2125C8.59002 10.203 8.58642 10.1934 8.58248 10.1839C8.57794 10.1725 8.57326 10.1612 8.56899 10.1496C8.56444 10.1377 8.5603 10.1254 8.5561 10.1133C8.55296 10.1044 8.54995 10.0956 8.54701 10.0866C8.5426 10.0729 8.53826 10.0591 8.53426 10.0453C8.49405 9.90883 8.47208 9.76464 8.47208 9.61543V8.64219H11.5305V9.61543C11.5305 9.7641 11.5087 9.9077 11.4688 10.0436C11.4645 10.0584 11.4599 10.0731 11.4552 10.0878C11.4527 10.0955 11.45 10.1031 11.4474 10.1108C11.4428 10.1241 11.4382 10.1375 11.4332 10.1506C11.4297 10.16 11.4259 10.1692 11.4222 10.1785C11.4162 10.1935 11.4101 10.2084 11.4037 10.2231C11.3966 10.2393 11.3894 10.2554 11.3819 10.2714C11.3774 10.2806 11.3726 10.2897 11.368 10.2987C11.3624 10.31 11.3567 10.3212 11.3509 10.3322C11.3456 10.342 11.3402 10.3516 11.3347 10.3613C11.3292 10.3711 11.3235 10.3811 11.3176 10.3908C11.3116 10.4011 11.3055 10.4112 11.2992 10.4212C11.2939 10.4297 11.2884 10.4381 11.283 10.4463C11.2758 10.4574 11.2686 10.4684 11.2612 10.4792C11.2574 10.4846 11.2536 10.4898 11.2497 10.4952C11.0159 10.8239 10.6569 11.0527 10.2529 11.1206C10.2524 11.1207 10.252 11.1208 10.2516 11.1208ZM14.0943 11.1208C14.0784 11.1235 14.0625 11.1257 14.0465 11.1278C14.0381 11.1289 14.0296 11.1301 14.0211 11.1311C14.0085 11.1325 13.9958 11.1339 13.9832 11.135C13.97 11.1362 13.9567 11.1372 13.9435 11.138C13.934 11.1387 13.9245 11.1393 13.915 11.1398C13.8914 11.1409 13.8677 11.1416 13.844 11.1416C13.8201 11.1416 13.7965 11.1409 13.7729 11.1398C13.7634 11.1393 13.7539 11.1387 13.7444 11.138C13.7311 11.1372 13.7179 11.1362 13.7046 11.135C13.692 11.1339 13.6794 11.1325 13.6668 11.1311C13.6583 11.1301 13.6497 11.1289 13.6413 11.1278C13.6254 11.1257 13.6095 11.1235 13.5937 11.1208C13.5932 11.1208 13.5927 11.1207 13.5922 11.1206C13.1894 11.0528 12.8313 10.8252 12.5975 10.498C12.5929 10.4914 12.5881 10.485 12.5835 10.4783C12.5766 10.4684 12.57 10.4582 12.5633 10.448C12.5573 10.4387 12.5512 10.4295 12.5454 10.4201C12.5395 10.4108 12.5339 10.4015 12.5282 10.392C12.5218 10.3813 12.5157 10.3704 12.5095 10.3595C12.5046 10.3508 12.4996 10.342 12.4949 10.3332C12.4882 10.3207 12.4818 10.3081 12.4755 10.2954C12.4716 10.2877 12.4675 10.28 12.4638 10.2721C12.4543 10.2524 12.4453 10.2326 12.4367 10.2125C12.4326 10.203 12.429 10.1934 12.4252 10.1839C12.4206 10.1725 12.4159 10.1612 12.4117 10.1496C12.4071 10.1377 12.4029 10.1254 12.3987 10.1133C12.3956 10.1044 12.3926 10.0956 12.3896 10.0866C12.3852 10.0729 12.3809 10.0591 12.3769 10.0453C12.3367 9.90883 12.3147 9.76464 12.3147 9.61543V8.64219H15.3731V9.61543C15.3731 9.7641 15.3514 9.9077 15.3115 10.0436C15.3071 10.0584 15.3026 10.0731 15.2978 10.0878C15.2953 10.0955 15.2926 10.1031 15.29 10.1108C15.2855 10.1241 15.2808 10.1375 15.2758 10.1506C15.2724 10.16 15.2686 10.1692 15.2648 10.1785C15.2589 10.1935 15.2528 10.2084 15.2463 10.2231C15.2392 10.2393 15.2321 10.2554 15.2245 10.2714C15.2201 10.2806 15.2153 10.2897 15.2107 10.2987C15.205 10.31 15.1994 10.3212 15.1935 10.3322C15.1882 10.342 15.1828 10.3516 15.1774 10.3613C15.1718 10.3711 15.1661 10.3811 15.1603 10.3908C15.1542 10.4011 15.1481 10.4112 15.1418 10.4212C15.1365 10.4297 15.131 10.4381 15.1256 10.4463C15.1184 10.4574 15.1112 10.4684 15.1038 10.4792C15.1 10.4846 15.0962 10.4898 15.0924 10.4952C14.8585 10.8239 14.4996 11.0527 14.0955 11.1206C14.095 11.1207 14.0947 11.1208 14.0943 11.1208ZM19.9241 8.02005L18.0653 4.82585C18.0654 4.82201 18.0659 4.81825 18.0659 4.81434V2.86731C18.0659 2.65121 17.8903 2.47597 17.6738 2.47597H14.1917C13.8084 1.77661 13.2547 1.18349 12.5788 0.750671C11.8121 0.259576 10.9231 0 10.0081 0C9.09308 0 8.20419 0.259576 7.43732 0.750671C6.76142 1.18349 6.20787 1.77661 5.82455 2.47597H2.34246C2.1259 2.47597 1.95036 2.65121 1.95036 2.86731V4.7279L0.0509538 8.05719C0.00907693 8.13072 -0.00676414 8.21427 0.00260721 8.29562V9.61543C0.00260721 10.3968 0.393889 11.0883 0.99079 11.5062V19.5803C0.99079 19.7964 1.16638 19.9716 1.3829 19.9716H12.5802H16.4228H18.6322C18.8488 19.9716 19.0243 19.7964 19.0243 19.5803V11.4974C19.6141 11.0786 20 10.3913 20 9.61543V8.25081C20 8.16438 19.9716 8.08484 19.9241 8.02005ZM4.2452 16.9418H9.86823V13.6652H4.2452V16.9418ZM10.2603 12.8825H3.85309C3.63657 12.8825 3.46099 13.0577 3.46099 13.2738V17.3331C3.46099 17.5493 3.63657 17.7245 3.85309 17.7245H10.2603C10.4769 17.7245 10.6525 17.5493 10.6525 17.3331V13.2738C10.6525 13.0577 10.4769 12.8825 10.2603 12.8825Z" fill="#9BA1B2"/>
</svg>
