<svg width="20" height="20" viewBox="0 0 20 20" fill="none" xmlns="http://www.w3.org/2000/svg">
<path d="M14.3526 4.96818C14.3473 4.91906 14.2076 3.76023 12.966 3.30414C12.9644 3.30359 12.9629 3.30304 12.9614 3.3025L11.3874 2.74992C11.019 2.62062 10.6154 2.62578 10.2508 2.76429C9.79937 2.93578 9.44981 3.06199 9.23997 3.12929C9.14457 3.15988 9.04421 3.17538 8.94169 3.17538H7.44633C7.43185 3.17538 7.41733 3.17632 7.40289 3.17816C7.34569 3.18558 5.99697 3.37738 5.65757 4.89866C5.65217 4.92286 5.64941 4.94754 5.64941 4.9723V7.87918C5.64941 7.8817 5.64945 7.88417 5.64949 7.88669C5.65173 7.98765 5.72317 10.3723 7.37085 11.4629L7.37937 11.4689C7.38641 11.4739 7.39349 11.4789 7.40089 11.4839C7.49481 11.5473 7.58917 11.6162 7.68141 11.6886C8.16141 12.0655 9.06601 12.6913 9.77961 12.6913C9.78093 12.6913 9.78217 12.6913 9.78353 12.6913C9.82229 12.6956 9.89149 12.7013 9.98529 12.7013C10.3897 12.7013 11.2525 12.5953 12.1168 11.8141C12.2618 11.683 12.4249 11.5548 12.6017 11.433L12.6269 11.4153C12.6352 11.4095 12.6434 11.4037 12.6519 11.3979C13.2016 11.0288 14.1534 10.0763 14.3533 7.84449C14.3542 7.8345 14.3546 7.82437 14.3546 7.81429V5.0047C14.3546 4.9925 14.3539 4.98034 14.3526 4.96818Z" fill="#9BA1B2" fill-opacity="0.3"/>
<path d="M15.1515 3.01688C15.1448 2.96391 14.9864 1.82071 13.9103 1.36973C13.9415 1.16895 13.9383 0.910899 13.8108 0.659843C13.6395 0.322422 13.3014 0.102539 12.8059 0.00621119C12.7846 0.0020704 12.7631 0 12.7414 0H8.20283C6.35995 0 4.8606 1.4993 4.8606 3.34227V5.12315C4.8606 5.58715 5.01876 6.03963 5.30588 6.39711C5.44824 6.57439 5.62355 6.88395 5.64999 7.35199C5.66031 7.53475 5.81327 7.67595 5.99715 7.67087C6.18011 7.66571 6.32571 7.51587 6.32571 7.33287V5.01099C6.55535 4.06139 7.33895 3.8766 7.47371 3.85164H8.94175C9.11443 3.85164 9.28423 3.82528 9.44655 3.77325C9.72571 3.68372 10.1686 3.51895 10.4909 3.39649C10.7067 3.3145 10.9455 3.31149 11.1633 3.38805L12.735 3.93977C13.5207 4.22959 13.6609 4.91939 13.6783 5.02775V7.81435C13.6783 7.99135 13.8147 8.13819 13.9912 8.15135C13.9998 8.15195 14.0083 8.15231 14.0167 8.15231C14.1826 8.15227 14.3258 8.03075 14.3509 7.86423C14.3522 7.85551 14.4872 6.98335 14.9226 6.28507C15.0741 6.04199 15.1542 5.76483 15.1542 5.48359V3.05957C15.1542 3.04532 15.1533 3.03106 15.1515 3.01688Z" fill="#9BA1B2" fill-opacity="0.3"/>
<path d="M10.2384 19.3409L10.237 19.3394C10.2361 19.3385 10.2352 19.3376 10.2343 19.3367L10.1593 19.2618C10.1558 19.2582 10.1521 19.2548 10.1485 19.2514L6.51943 15.9316L6.87407 15.2546C6.92855 15.1506 6.92515 15.0258 6.86519 14.9248C6.80519 14.8239 6.69715 14.7614 6.57979 14.7596L5.71512 14.7462L6.59623 12.9793C6.65795 12.8555 6.63803 12.7067 6.54611 12.6035C6.45419 12.5002 6.30855 12.4633 6.17859 12.5104L1.95856 14.0372C1.16731 14.3233 0.590361 15.0169 0.452898 15.847L0.0166877 18.4811C-0.0427267 18.84 0.0581328 19.2049 0.293366 19.4823C0.528641 19.7596 0.872197 19.9188 1.23587 19.9188H10C10.137 19.9188 10.2603 19.8361 10.3125 19.7096C10.3648 19.583 10.3355 19.4374 10.2384 19.3409Z" fill="#9BA1B2" fill-opacity="0.3"/>
<path d="M19.9834 18.4811L19.5472 15.847C19.4097 15.0169 18.8328 14.3233 18.0415 14.0372L13.8214 12.5104C13.6913 12.4633 13.5459 12.5002 13.4539 12.6034C13.362 12.7066 13.3421 12.8555 13.4038 12.9793L14.2849 14.7462L13.4203 14.7596C13.303 14.7614 13.1949 14.8239 13.1349 14.9248C13.0749 15.0258 13.0716 15.1505 13.126 15.2546L13.4806 15.9316L9.85157 19.2514C9.84789 19.2548 9.84425 19.2583 9.84069 19.2618L9.76577 19.3367C9.65965 19.4429 9.63617 19.6063 9.70825 19.7381L9.71089 19.7429C9.77021 19.8513 9.88397 19.9187 10.0076 19.9187H18.7642C19.128 19.9187 19.4716 19.7596 19.7068 19.4822C19.942 19.2048 20.0428 18.8399 19.9834 18.4811Z" fill="#9BA1B2" fill-opacity="0.3"/>
<path d="M9.42286 14.7597C9.27242 14.6493 9.06074 14.6816 8.95018 14.8321L8.90842 14.8889C8.79798 15.0393 8.83014 15.2507 8.98038 15.3613C9.04074 15.4059 9.11106 15.4273 9.1807 15.4273C9.28434 15.4273 9.38662 15.3798 9.4529 15.2901L9.49526 15.2325C9.60578 15.0819 9.57334 14.8703 9.42286 14.7597Z" fill="#9BA1B2"/>
<path d="M9.51123 17.9766L8.64155 16.3953L9.45351 15.2894C9.56411 15.1389 9.53163 14.9273 9.38111 14.8168C9.23059 14.7062 9.01895 14.7386 8.90843 14.8892L7.96867 16.1691C7.89075 16.2752 7.88151 16.4168 7.94491 16.5322L8.91867 18.3025V18.3025C8.98027 18.4144 9.09595 18.4777 9.21527 18.4777C9.27039 18.4777 9.32627 18.4642 9.37795 18.4358C9.54151 18.3458 9.60123 18.1403 9.51123 17.9766Z" fill="#9BA1B2"/>
<path d="M12.0315 16.1691L11.0956 14.8944C11.018 14.7888 10.8864 14.7374 10.7578 14.7629C10.6291 14.7881 10.5267 14.8855 10.4949 15.0127C10.4705 15.1104 10.4909 15.2137 10.5504 15.2949L11.3584 16.3953L10.4947 17.9659C10.4673 18.0158 10.4529 18.0721 10.4529 18.1291C10.4529 18.2834 10.5574 18.4181 10.7069 18.4565C10.7349 18.4638 10.7631 18.4673 10.791 18.4673C10.9121 18.4673 11.0268 18.4019 11.0873 18.2921L12.0552 16.5323C12.1187 16.4169 12.1094 16.2752 12.0315 16.1691Z" fill="#9BA1B2"/>
<path d="M12.5672 10.8552C12.456 10.7968 12.3215 10.8048 12.218 10.8761C12.0169 11.0147 11.8303 11.1614 11.6633 11.3124C10.7533 12.135 9.88875 12.0237 9.85487 12.0188C9.83451 12.0156 9.81375 12.0142 9.79323 12.0148C9.43359 12.024 8.78515 11.6954 8.09919 11.1566C7.99427 11.0743 7.88667 10.9958 7.77927 10.9232C7.67567 10.8532 7.54179 10.8462 7.43139 10.9049C7.32099 10.9636 7.25195 11.0784 7.25195 11.2035V12.3635C7.25195 12.4661 7.29863 12.563 7.37863 12.6272C7.38807 12.6349 7.39791 12.6419 7.40807 12.6484L9.80579 14.2506C9.80619 14.2508 9.80651 14.2511 9.80691 14.2514L9.81323 14.2556C9.86967 14.293 9.93471 14.3118 9.99999 14.3118C10.0549 14.3118 10.1098 14.2985 10.16 14.2717C10.1706 14.266 10.1808 14.2598 10.1905 14.2532C10.1917 14.2524 10.1928 14.2517 10.194 14.2509C10.1953 14.25 10.1966 14.2491 10.1979 14.2482L12.59 12.6498C12.5996 12.6437 12.609 12.6372 12.618 12.6301C12.7001 12.5661 12.7481 12.4678 12.7481 12.3636V11.1546C12.7481 11.0289 12.6784 10.9137 12.5672 10.8552ZM12.0717 12.1826L9.99995 13.567L7.92823 12.1826V11.875C8.43271 12.2416 9.17475 12.6913 9.77963 12.6913C9.78091 12.6913 9.78231 12.6913 9.78359 12.6913C9.98667 12.7137 11.0223 12.7748 12.0718 11.8542V12.1826H12.0717Z" fill="#9BA1B2"/>
<path d="M10.3335 13.9181C10.3112 13.784 10.2107 13.6763 10.0784 13.6447C9.94606 13.6134 9.80786 13.664 9.72738 13.7736L8.95014 14.8322C8.83958 14.9827 8.87202 15.1944 9.02262 15.3049C9.08286 15.3492 9.15294 15.3705 9.22246 15.3705C9.32642 15.3705 9.42902 15.3227 9.49534 15.2324L10.2685 14.1793C10.3125 14.1219 10.3381 14.0503 10.3381 13.9738C10.3381 13.9552 10.3365 13.9365 10.3335 13.9181Z" fill="#9BA1B2"/>
<path d="M15.1515 3.01688C15.1448 2.96391 14.9864 1.82071 13.9103 1.36973C13.9415 1.16895 13.9383 0.910899 13.8108 0.659843C13.6395 0.322422 13.3014 0.102539 12.8059 0.00621119C12.7846 0.0020704 12.7631 0 12.7414 0H8.20283C6.35995 0 4.8606 1.4993 4.8606 3.34227V5.12315C4.8606 5.58715 5.01876 6.03963 5.30588 6.39711C5.44824 6.57439 5.62355 6.88395 5.64999 7.35199C5.66031 7.53475 5.81327 7.67595 5.99715 7.67087C6.18011 7.66571 6.32571 7.51587 6.32571 7.33287V5.01099C6.55535 4.06139 7.33895 3.8766 7.47371 3.85164H8.94175C9.11443 3.85164 9.28423 3.82528 9.44655 3.77325C9.72571 3.68372 10.1686 3.51895 10.4909 3.39649C10.7067 3.3145 10.9455 3.31149 11.1633 3.38805L12.735 3.93977C13.5207 4.22959 13.6609 4.91939 13.6783 5.02775V7.81435C13.6783 7.99135 13.8147 8.13819 13.9912 8.15135C13.9998 8.15195 14.0083 8.15231 14.0167 8.15231C14.1826 8.15227 14.3258 8.03075 14.3509 7.86423C14.3522 7.85551 14.4872 6.98335 14.9226 6.28507C15.0741 6.04199 15.1542 5.76483 15.1542 5.48359V3.05957C15.1542 3.04532 15.1533 3.03106 15.1515 3.01688ZM14.4779 5.48343C14.4779 5.63451 14.4353 5.78435 14.3546 5.91759V5.00463C14.3546 4.99239 14.3539 4.98023 14.3526 4.96807C14.3473 4.91899 14.2075 3.76016 12.9659 3.30406C12.9644 3.30352 12.9629 3.30297 12.9613 3.30242L11.3873 2.74984C11.2099 2.68754 11.0242 2.65645 10.8387 2.65645C10.6391 2.65645 10.4397 2.69242 10.2508 2.7643C9.79935 2.93578 9.44979 3.062 9.23999 3.12926C9.14455 3.15985 9.04419 3.17539 8.94171 3.17539H7.44635C7.43187 3.17539 7.41731 3.17633 7.40291 3.17817C7.34567 3.18559 5.99699 3.37739 5.65755 4.89867C5.65215 4.92287 5.64943 4.94755 5.64943 4.97231V5.66823C5.57579 5.49807 5.53684 5.31223 5.53684 5.12319V3.34235C5.53684 1.87235 6.73279 0.676367 8.20275 0.676367H12.7073C12.8937 0.716095 13.1204 0.797619 13.2063 0.963479C13.3116 1.16649 13.1917 1.44602 13.1916 1.44625C13.1483 1.53824 13.1489 1.64477 13.1928 1.73637C13.2368 1.82797 13.3197 1.89493 13.4185 1.91871C14.2794 2.12594 14.4549 2.9516 14.4779 3.08516V5.48343H14.4779Z" fill="#9BA1B2"/>
<path d="M14.3526 4.96818C14.3473 4.91906 14.2076 3.76023 12.966 3.30414C12.9644 3.30359 12.9629 3.30304 12.9614 3.3025L11.3874 2.74992C11.019 2.62062 10.6154 2.62578 10.2508 2.76429C9.79937 2.93578 9.44981 3.06199 9.23997 3.12929C9.14457 3.15988 9.04421 3.17538 8.94169 3.17538H7.44633C7.43185 3.17538 7.41733 3.17632 7.40289 3.17816C7.34569 3.18558 5.99697 3.37738 5.65757 4.89866C5.65217 4.92286 5.64941 4.94754 5.64941 4.9723V7.87918C5.64941 7.8817 5.64945 7.88417 5.64949 7.88669C5.65173 7.98765 5.72317 10.3723 7.37085 11.4629L7.37937 11.4689C7.38641 11.4739 7.39349 11.4789 7.40089 11.4839C7.49481 11.5473 7.58917 11.6162 7.68141 11.6886C8.16141 12.0655 9.06601 12.6913 9.77961 12.6913C9.78093 12.6913 9.78217 12.6913 9.78353 12.6913C9.82229 12.6956 9.89149 12.7013 9.98529 12.7013C10.3897 12.7013 11.2525 12.5953 12.1168 11.8141C12.2618 11.683 12.4249 11.5548 12.6017 11.433L12.6269 11.4153C12.6352 11.4095 12.6434 11.4037 12.6519 11.3979C13.2016 11.0288 14.1534 10.0763 14.3533 7.84449C14.3542 7.8345 14.3546 7.82437 14.3546 7.81429V5.0047C14.3546 4.9925 14.3539 4.98034 14.3526 4.96818ZM13.6783 7.79902C13.494 9.81317 12.6358 10.594 12.2748 10.8365C12.262 10.8451 12.2494 10.854 12.2367 10.8629L12.218 10.8761C12.0168 11.0147 11.8302 11.1615 11.6632 11.3123C10.7566 12.132 9.89485 12.0245 9.85261 12.0185C9.83297 12.0156 9.81305 12.0143 9.79317 12.0149C9.43349 12.0241 8.78505 11.6955 8.09909 11.1567C7.99417 11.0743 7.88657 10.9958 7.77933 10.9234L7.77101 10.9175C7.76289 10.9118 7.75477 10.906 7.74525 10.8997C6.41565 10.0197 6.32865 7.96022 6.32573 7.8743V5.01102C6.55613 4.05798 7.34461 3.87527 7.47313 3.85168H8.94173C9.11445 3.85168 9.28425 3.82531 9.44653 3.77328C9.72569 3.68374 10.1686 3.51898 10.491 3.39652C10.7066 3.31452 10.9455 3.31152 11.1633 3.38808L12.735 3.9398C13.5207 4.22966 13.6609 4.91942 13.6783 5.02778L13.6783 7.79902Z" fill="#9BA1B2"/>
<path d="M10.3024 13.8226C10.2497 13.7172 10.146 13.6469 10.0286 13.6369C9.91141 13.6272 9.79713 13.6787 9.72741 13.7737L8.91741 14.8769C8.80697 15.0274 8.83925 15.2389 8.98957 15.3495C9.04989 15.3938 9.12009 15.4153 9.18965 15.4153C9.29341 15.4153 9.39585 15.3677 9.46213 15.2777L10.2722 14.1786C10.315 14.1204 10.3381 14.0461 10.3381 13.9739C10.3382 13.9215 10.3259 13.8696 10.3024 13.8226Z" fill="#9BA1B2"/>
<path d="M10.3241 19.2671C10.1971 19.1342 9.98719 19.1272 9.85155 19.2513L9.77427 19.322C9.65851 19.4278 9.63075 19.5993 9.70723 19.7363L9.70959 19.7406C9.76123 19.8331 9.85335 19.8961 9.95831 19.9107C9.97387 19.9128 9.98939 19.9139 10.0049 19.9139C10.0939 19.9139 10.1801 19.8787 10.244 19.8148L10.3189 19.7398C10.4488 19.6099 10.4511 19.3999 10.3241 19.2671Z" fill="#9BA1B2"/>
<path d="M10.2257 19.322L10.1484 19.2513C10.0128 19.1272 9.80286 19.1343 9.67582 19.2671C9.54874 19.4 9.5511 19.61 9.6811 19.7399L9.7561 19.8149C9.81994 19.8788 9.90614 19.9139 9.99514 19.9139C10.0111 19.9139 10.027 19.9129 10.043 19.9105C10.1483 19.8955 10.2404 19.8317 10.2916 19.7384L10.294 19.7342C10.3689 19.5975 10.3407 19.4272 10.2257 19.322Z" fill="#9BA1B2"/>
<path d="M10.2314 19.3272L10.231 19.3268C10.1787 19.278 10.1112 19.2458 10.0368 19.2376C9.93712 19.2268 9.84004 19.2605 9.76948 19.3263L9.76844 19.3272C9.70008 19.3896 9.66028 19.4772 9.65828 19.5698C9.65632 19.6623 9.69232 19.7516 9.75792 19.8168L9.76148 19.8204C9.82744 19.886 9.91364 19.9187 9.99988 19.9187C10.0865 19.9187 10.173 19.8857 10.239 19.8198L10.2425 19.8162C10.3078 19.7508 10.3436 19.6616 10.3415 19.5693C10.3394 19.4769 10.2996 19.3895 10.2314 19.3272Z" fill="#9BA1B2"/>
<path d="M10.1097 13.6465C9.96966 13.6016 9.81602 13.6536 9.73074 13.7735C9.63534 13.9079 9.6511 14.0909 9.7673 14.2076C9.8327 14.2733 9.9195 14.307 10.0069 14.307C10.0749 14.307 10.1431 14.2867 10.2021 14.2452C10.2921 14.1819 10.3456 14.0787 10.3456 13.9687V13.9679C10.3456 13.8207 10.2499 13.6912 10.1097 13.6465Z" fill="#9BA1B2"/>
<path d="M10.2748 13.7708L10.2719 13.7669C10.1851 13.6495 10.0328 13.6011 9.89418 13.6468C9.75554 13.6924 9.66187 13.822 9.66187 13.9679V13.9737C9.66187 14.0982 9.73175 14.2116 9.84143 14.2706C9.89111 14.2972 9.94598 14.3104 10.0007 14.3104C10.0668 14.3104 10.1328 14.2913 10.1895 14.2537C10.2668 14.2025 10.3197 14.1218 10.3359 14.0305C10.352 13.9393 10.3299 13.8453 10.2748 13.7708Z" fill="#9BA1B2"/>
<path d="M14.0226 12.7085C13.9876 12.6159 13.9137 12.5433 13.8205 12.51L12.524 12.0452C12.5135 12.0414 12.5026 12.0381 12.4917 12.0354C12.3992 12.0123 12.3011 12.0293 12.2218 12.0823L9.81954 13.6876C9.81894 13.688 9.81822 13.6884 9.81758 13.6889L10.0062 13.9694L9.81334 13.6917C9.74286 13.7383 9.69242 13.8098 9.67194 13.8917C9.6607 13.9367 9.65886 13.9837 9.66646 14.0295C9.67518 14.0817 9.69602 14.1313 9.72746 14.174L11.4862 16.5694C11.5501 16.6565 11.6515 16.7074 11.7587 16.7074C11.7661 16.7074 11.7735 16.7072 11.7809 16.7066C11.8961 16.6991 11.9994 16.6334 12.0551 16.5322L14.0026 12.9912C14.0504 12.9044 14.0577 12.8011 14.0226 12.7085ZM11.7178 15.7421L10.4817 14.0585L12.456 12.7392L13.219 13.0128L11.7178 15.7421Z" fill="#9BA1B2"/>
<path d="M10.3332 13.9155C10.3173 13.8247 10.2651 13.7443 10.1885 13.693L7.77826 12.0824C7.70154 12.031 7.60698 12.0135 7.51686 12.0335C7.50302 12.0365 7.48942 12.0405 7.4761 12.0453L6.17958 12.51C6.08638 12.5434 6.0125 12.616 5.97746 12.7086C5.94242 12.8012 5.9497 12.9045 5.99742 12.9913L7.94498 16.5322C8.00062 16.6334 8.10402 16.6992 8.21918 16.7067C8.22654 16.7072 8.23394 16.7074 8.24126 16.7074C8.34846 16.7074 8.44982 16.6565 8.51386 16.5694L9.45362 15.2895C9.45434 15.2885 9.4551 15.2874 9.45582 15.2864L10.2727 14.1738C10.3272 14.0995 10.3491 14.0062 10.3332 13.9155ZM8.90854 14.8891C8.9077 14.8902 8.90694 14.8912 8.9061 14.8924L8.28218 15.7422L6.78098 13.0128L7.54406 12.7393L9.5183 14.0586L8.90854 14.8891Z" fill="#9BA1B2"/>
<path d="M19.9834 18.4811L19.5472 15.847C19.4097 15.0169 18.8328 14.3233 18.0415 14.0372L13.8214 12.5104C13.6913 12.4633 13.5459 12.5002 13.4539 12.6034C13.362 12.7066 13.3421 12.8555 13.4038 12.9793L14.2849 14.7462L13.4203 14.7596C13.303 14.7614 13.1949 14.8239 13.1349 14.9248C13.0749 15.0258 13.0716 15.1505 13.126 15.2546L13.4806 15.9316L9.85157 19.2514C9.84789 19.2548 9.84425 19.2583 9.84069 19.2618L9.76577 19.3367C9.65965 19.4429 9.63617 19.6063 9.70825 19.7381L9.71089 19.7429C9.77021 19.8513 9.88397 19.9187 10.0076 19.9187H18.7642C19.128 19.9187 19.4716 19.7596 19.7068 19.4822C19.942 19.2048 20.0428 18.8399 19.9834 18.4811ZM19.191 19.0448C19.0845 19.1704 18.929 19.2425 18.7643 19.2425H10.8633L14.1293 16.2548C14.2426 16.1513 14.2719 15.9844 14.2006 15.8484L13.98 15.4272L14.8326 15.4141C14.9488 15.4124 15.0559 15.351 15.1163 15.2517C15.1767 15.1524 15.1819 15.0291 15.13 14.9251L14.3864 13.4338L17.8116 14.673C18.3732 14.8762 18.7826 15.3683 18.8801 15.9574L19.3163 18.5915C19.3163 18.5916 19.3163 18.5916 19.3163 18.5916C19.3432 18.754 19.2976 18.9192 19.191 19.0448Z" fill="#9BA1B2"/>
<path d="M10.2344 19.3299L10.2304 19.3264C10.0966 19.2052 9.89108 19.2106 9.76372 19.3386L9.7602 19.3422C9.66392 19.439 9.63536 19.5844 9.6878 19.7104C9.74024 19.8366 9.86344 19.9187 10 19.9187H10.0074C10.1472 19.9187 10.2727 19.8326 10.3229 19.7022C10.3732 19.5717 10.338 19.4237 10.2344 19.3299Z" fill="#9BA1B2"/>
<path d="M10.2237 19.3202C10.1469 19.2511 10.0429 19.2208 9.94089 19.2382C9.83905 19.2554 9.75069 19.3183 9.70101 19.4089L9.69865 19.4131C9.62737 19.5431 9.64905 19.7044 9.75213 19.8109L9.75333 19.8122C9.81961 19.8807 9.90789 19.9152 9.99641 19.9152C10.0779 19.9152 10.1595 19.8859 10.2242 19.8268L10.2278 19.8236C10.2585 19.7956 10.2838 19.7621 10.3024 19.7249C10.3705 19.5889 10.3368 19.4219 10.2237 19.3202Z" fill="#9BA1B2"/>
<path d="M10.2384 19.3408L10.237 19.3393C10.2361 19.3385 10.2352 19.3375 10.2343 19.3367L10.1593 19.2617C10.1558 19.2582 10.1521 19.2547 10.1485 19.2514L6.51943 15.9316L6.87407 15.2545C6.92855 15.1506 6.92515 15.0257 6.86519 14.9248C6.80519 14.8239 6.69715 14.7614 6.57979 14.7595L5.71512 14.7462L6.59623 12.9792C6.65795 12.8555 6.63803 12.7066 6.54611 12.6034C6.45419 12.5002 6.30855 12.4632 6.17859 12.5103L1.95856 14.0372C1.16731 14.3233 0.590361 15.0168 0.452898 15.847L0.0166877 18.4811C-0.0427267 18.84 0.0581328 19.2048 0.293366 19.4822C0.528641 19.7596 0.872197 19.9187 1.23587 19.9187H10C10.137 19.9187 10.2603 19.8361 10.3125 19.7095C10.3648 19.5829 10.3355 19.4373 10.2384 19.3408ZM1.23591 19.2425C1.07122 19.2425 0.915673 19.1704 0.809189 19.0448C0.702705 18.9192 0.657077 18.754 0.683953 18.5915L1.12016 15.9574C1.2177 15.3682 1.62712 14.8761 2.18864 14.673L5.61384 13.4338L4.87024 14.925C4.81836 15.029 4.82352 15.1523 4.88396 15.2516C4.94432 15.3509 5.05148 15.4122 5.16768 15.414L6.02024 15.4272L5.79964 15.8484C5.7284 15.9843 5.75772 16.1512 5.87092 16.2548L9.13695 19.2425H1.23591Z" fill="#9BA1B2"/>
<path d="M11.1509 15.1765C11.1753 15.0788 11.155 14.9754 11.0954 14.8943L10.2725 13.7736C10.186 13.6558 10.0335 13.609 9.89469 13.6545C9.81973 13.6791 9.75797 13.7287 9.71685 13.7921L8.90901 14.8882C8.89745 14.9038 8.88717 14.9206 8.87845 14.9381C8.82313 15.0488 8.83269 15.1809 8.90337 15.2825L9.24741 15.7766L8.88093 18.0866C8.86917 18.1608 8.88245 18.2367 8.91861 18.3025L9.70369 19.7299C9.76313 19.838 9.87669 19.9051 9.99997 19.9051C10.1233 19.9051 10.2368 19.838 10.2963 19.7299L11.0872 18.292C11.1146 18.242 11.129 18.186 11.129 18.129C11.129 18.1112 11.1276 18.0934 11.1249 18.0758L10.76 15.7766L11.1004 15.288C11.1237 15.2542 11.141 15.2163 11.1509 15.1765ZM9.99997 18.8654L9.56697 18.0781L9.93665 15.7481C9.95037 15.6618 9.93009 15.5736 9.88017 15.5019L9.59681 15.0949L10.001 14.5466L10.4072 15.0998L10.1272 15.5019C10.0773 15.5735 10.0571 15.6618 10.0708 15.7481L10.4388 18.0675L9.99997 18.8654Z" fill="#9BA1B2"/>
</svg>
