<svg width="20" height="20" viewBox="0 0 20 20" fill="none" xmlns="http://www.w3.org/2000/svg">
<path d="M15.6666 9.24544V3.33109C15.6666 3.3016 15.6627 3.27223 15.655 3.24376C15.6523 3.23442 15.6473 3.22642 15.6439 3.21709C15.638 3.19882 15.6306 3.18109 15.6217 3.16409C15.6159 3.15476 15.6082 3.14709 15.6019 3.13809C15.5919 3.12301 15.5809 3.10874 15.5686 3.09542C15.5612 3.08809 15.5519 3.08276 15.5439 3.07609C15.5309 3.06378 15.5166 3.05262 15.5016 3.04276H15.4982L10.1649 0.0427605C10.1151 0.0147285 10.0588 0 10.0016 0C9.94439 0 9.88811 0.0147285 9.83828 0.0427605L4.50494 3.04276H4.50157C4.48655 3.05262 4.47239 3.06378 4.45925 3.07609C4.45127 3.08276 4.44192 3.08809 4.43459 3.09542C4.42238 3.10874 4.4112 3.12301 4.40126 3.13809C4.39491 3.14709 4.38727 3.15476 4.38159 3.16409C4.37263 3.18109 4.36517 3.19882 4.35924 3.21709C4.35591 3.22642 4.35092 3.23442 4.34827 3.24376C4.3394 3.27208 4.33436 3.30145 4.33325 3.33109V9.24544C4.33329 9.30389 4.34874 9.36128 4.37801 9.41193C4.40724 9.46249 4.44931 9.50451 4.49991 9.53374L9.83324 12.6194C9.85329 12.6303 9.87437 12.639 9.89626 12.6454C9.90257 12.6474 9.90825 12.6511 9.91426 12.6528C9.97037 12.6679 10.0295 12.6679 10.0856 12.6528C10.0916 12.6511 10.0973 12.6474 10.1036 12.6454C10.1255 12.639 10.1465 12.6303 10.1666 12.6194L15.4999 9.53374C15.5506 9.50451 15.5926 9.46249 15.6218 9.41193C15.6511 9.36128 15.6666 9.30389 15.6666 9.24544Z" fill="#9BA1B2" fill-opacity="0.3"/>
<path d="M18.6666 3.99739C18.313 3.99739 17.9738 4.13789 17.7238 4.38792C17.4738 4.63795 17.3333 4.9771 17.3333 5.33072V9.70372C17.111 9.64633 16.8771 9.65162 16.6576 9.71895C16.4382 9.78632 16.2416 9.91317 16.0899 10.0854L13.7883 12.6431C13.078 13.0567 12.4823 13.6411 12.055 14.3434C11.6277 15.0455 11.3824 15.8431 11.3412 16.6641H11.3333V19.9974H11.9999V16.9061C12.0016 16.1522 12.2025 15.412 12.5823 14.7607C12.9621 14.1095 13.5072 13.5702 14.1626 13.1974C14.1943 13.1799 14.2231 13.1574 14.2476 13.1307L16.5852 10.5307C16.64 10.4696 16.7067 10.4203 16.7812 10.386C16.8558 10.3516 16.9366 10.3328 17.0186 10.3307C17.1007 10.329 17.1824 10.3439 17.2587 10.3743C17.335 10.4048 17.4044 10.4503 17.4628 10.5081C17.5733 10.618 17.6368 10.7663 17.6406 10.9221C17.6443 11.0778 17.5878 11.2289 17.483 11.3441L14.7532 14.3485L15.2466 14.7974L17.9775 11.7934C18.1855 11.5646 18.3026 11.2676 18.3066 10.9585C18.3107 10.6493 18.2016 10.3493 17.9999 10.1151V5.33072C17.9999 5.15391 18.0702 4.98436 18.1951 4.85934C18.3202 4.73429 18.4898 4.66406 18.6666 4.66406C18.8434 4.66406 19.013 4.73429 19.1381 4.85934C19.263 4.98436 19.3333 5.15391 19.3333 5.33072V11.6044C19.3327 12.0235 19.2199 12.4349 19.0066 12.7958L16.0399 18.1696C16.0132 18.2191 15.9995 18.2746 15.9999 18.3307V19.9974H16.6666V18.4167L19.5855 13.1257C19.8567 12.6646 19.9997 12.1393 19.9999 11.6044V5.33072C19.9999 4.9771 19.8594 4.63795 19.6093 4.38792C19.3594 4.13789 19.0202 3.99739 18.6666 3.99739Z" fill="#9BA1B2"/>
<path d="M15.6666 9.24544V3.33109C15.6666 3.3016 15.6627 3.27223 15.655 3.24376C15.6523 3.23442 15.6473 3.22642 15.6439 3.21709C15.638 3.19882 15.6306 3.18109 15.6217 3.16409C15.6159 3.15476 15.6082 3.14709 15.6019 3.13809C15.5919 3.12301 15.5809 3.10874 15.5686 3.09542C15.5612 3.08809 15.5519 3.08276 15.5439 3.07609C15.5309 3.06378 15.5166 3.05262 15.5016 3.04276H15.4982L10.1649 0.0427605C10.1151 0.0147285 10.0588 0 10.0016 0C9.94439 0 9.88811 0.0147285 9.83828 0.0427605L4.50494 3.04276H4.50157C4.48655 3.05262 4.47239 3.06378 4.45925 3.07609C4.45127 3.08276 4.44192 3.08809 4.43459 3.09542C4.42238 3.10874 4.4112 3.12301 4.40126 3.13809C4.39491 3.14709 4.38727 3.15476 4.38159 3.16409C4.37263 3.18109 4.36517 3.19882 4.35924 3.21709C4.35591 3.22642 4.35092 3.23442 4.34827 3.24376C4.3394 3.27208 4.33436 3.30145 4.33325 3.33109V9.24544C4.33329 9.30389 4.34874 9.36128 4.37801 9.41193C4.40724 9.46249 4.44931 9.50451 4.49991 9.53374L9.83324 12.6194C9.85329 12.6303 9.87437 12.639 9.89626 12.6454C9.90257 12.6474 9.90825 12.6511 9.91426 12.6528C9.97037 12.6679 10.0295 12.6679 10.0856 12.6528C10.0916 12.6511 10.0973 12.6474 10.1036 12.6454C10.1255 12.639 10.1465 12.6303 10.1666 12.6194L15.4999 9.53374C15.5506 9.50451 15.5926 9.46249 15.6218 9.41193C15.6511 9.36128 15.6666 9.30389 15.6666 9.24544ZM9.99994 0.713425L11.8386 1.74676L7.18526 4.36442L5.34659 3.33109L9.99994 0.713425ZM9.66658 11.7534L4.99992 9.05344V3.9011L9.66658 6.52608V11.7534ZM9.99994 5.94876L7.86661 4.74778L12.5183 2.13109L14.6533 3.33109L9.99994 5.94876ZM14.9999 9.0531L10.3333 11.7531V6.52608L14.9999 3.9011V9.0531Z" fill="#9BA1B2"/>
<path d="M14.3334 8.33073H13.6667V8.99736H14.3334V8.33073Z" fill="#9BA1B2"/>
<path d="M12.9999 8.99739H12.3333V9.6641H12.9999V8.99739Z" fill="#9BA1B2"/>
<path d="M11.6667 9.66406H11V10.3307H11.6667V9.66406Z" fill="#9BA1B2"/>
<path d="M3.33333 18.417V19.9974H4.00002V18.3307C4.00006 18.2742 3.9856 18.2184 3.95799 18.169L0.960333 12.773C0.768081 12.4262 0.667029 12.0363 0.666667 11.6397V5.33072C0.666667 5.15391 0.736909 4.98436 0.861935 4.85934C0.986948 4.73429 1.15652 4.66406 1.33333 4.66406C1.51015 4.66406 1.67972 4.73429 1.80474 4.85934C1.92976 4.98436 2 5.15391 2 5.33072V10.1151C1.79844 10.3493 1.68946 10.6491 1.69357 10.9581C1.69768 11.2671 1.81461 11.5639 2.02234 11.7927L4.75334 14.7974L5.24665 14.3491L2.51567 11.3441C2.41073 11.2289 2.35425 11.0778 2.35799 10.9221C2.36171 10.7663 2.42535 10.618 2.53567 10.5081C2.59432 10.4506 2.66379 10.4053 2.74007 10.3749C2.81633 10.3444 2.89789 10.3294 2.98 10.3307C3.06204 10.3328 3.1428 10.3516 3.21732 10.386C3.29184 10.4203 3.35853 10.4696 3.41335 10.5307L5.75234 13.1307C5.78208 13.1606 5.81574 13.1862 5.85235 13.2071C6.50387 13.5805 7.04544 14.119 7.42248 14.7683C7.79957 15.4178 7.99874 16.1551 8.00002 16.9061V19.9974H8.66668V16.6641H8.65866C8.61655 15.8437 8.37092 15.0464 7.94391 14.3447C7.5169 13.6429 6.92192 13.0583 6.21267 12.6437L3.90999 10.0854C3.79488 9.95643 3.6545 9.85245 3.49757 9.78C3.34064 9.70751 3.17048 9.66805 2.99767 9.66408C2.88611 9.66258 2.77484 9.67573 2.66667 9.70308V5.33072C2.66667 4.9771 2.52619 4.63795 2.27615 4.38792C2.02609 4.13789 1.68696 3.99739 1.33333 3.99739C0.979708 3.99739 0.640576 4.13789 0.390524 4.38792C0.140476 4.63795 0 4.9771 0 5.33072V11.6397C0.0002816 12.1498 0.130244 12.6514 0.377668 13.0974L3.33333 18.417Z" fill="#9BA1B2"/>
<path d="M8.32007 16.2133V19.9893H3.62673L3.84007 18.56L3.4134 17.92L1.06673 13.44L0.426735 11.52V5.11999C0.938735 3.58399 1.92007 4.47999 2.34674 5.11999V10.0267H2.98673L3.84007 10.4533L5.9734 12.8L7.2534 13.6533L7.8934 14.9333L8.32007 16.2133Z" fill="#9BA1B2" fill-opacity="0.3"/>
<path d="M11.7334 16.2133V19.9893H16.4267L16.2134 18.56L16.6401 17.92L18.9867 13.44L19.6267 11.52V5.11999C19.1147 3.58399 18.1334 4.47999 17.7067 5.11999V10.0267H17.0667L16.2134 10.4533L14.0801 12.8L12.8001 13.6533L12.1601 14.9333L11.7334 16.2133Z" fill="#9BA1B2" fill-opacity="0.3"/>
</svg>
