<svg width="24" height="26" viewBox="0 0 24 26" fill="none" xmlns="http://www.w3.org/2000/svg">
<path d="M12.0046 9.21958C11.1578 9.21958 10.3649 9.5481 9.76449 10.1485C9.16694 10.7489 8.8356 11.5418 8.8356 12.3886C8.8356 13.2354 9.16694 14.0283 9.76449 14.6287C10.3649 15.2263 11.1578 15.5576 12.0046 15.5576C12.8514 15.5576 13.6443 15.2263 14.2447 14.6287C14.8423 14.0283 15.1736 13.2354 15.1736 12.3886C15.1736 11.5418 14.8423 10.7489 14.2447 10.1485C13.9515 9.85298 13.6024 9.6187 13.2179 9.45923C12.8333 9.29977 12.4209 9.21831 12.0046 9.21958V9.21958ZM23.681 15.8889L21.8288 14.3059C21.9166 13.7678 21.9619 13.2184 21.9619 12.6718C21.9619 12.1252 21.9166 11.573 21.8288 11.0377L23.681 9.45464C23.8209 9.33486 23.921 9.17534 23.968 8.99727C24.0151 8.8192 24.0068 8.63103 23.9443 8.45778L23.9188 8.38414C23.4091 6.95877 22.6454 5.63754 21.6646 4.48448L21.6136 4.425C21.4945 4.28497 21.3358 4.1843 21.1583 4.13627C20.9809 4.08825 20.793 4.09511 20.6196 4.15596L18.32 4.97441C17.4704 4.27774 16.5245 3.72833 15.4993 3.34601L15.0547 0.941641C15.0211 0.760512 14.9333 0.593878 14.8028 0.463876C14.6722 0.333874 14.5053 0.246658 14.324 0.213816L14.2476 0.199656C12.7749 -0.0665521 11.223 -0.0665521 9.75033 0.199656L9.67387 0.213816C9.49261 0.246658 9.32564 0.333874 9.19513 0.463876C9.06462 0.593878 8.97676 0.760512 8.94321 0.941641L8.49576 3.35734C7.48028 3.74271 6.5343 4.29078 5.69491 4.98008L3.37833 4.15596C3.20491 4.09463 3.01694 4.08752 2.83938 4.13557C2.66183 4.18363 2.5031 4.28458 2.38429 4.425L2.33332 4.48448C1.35427 5.63877 0.590706 6.95967 0.0790443 8.38414L0.0535562 8.45778C-0.0738839 8.81178 0.0309003 9.20826 0.316933 9.45464L2.19172 11.0547C2.10393 11.5871 2.06145 12.1309 2.06145 12.669C2.06145 13.2127 2.10393 13.7565 2.19172 14.2832L0.322596 15.8833C0.182683 16.0031 0.0825458 16.1626 0.0354993 16.3407C-0.0115473 16.5187 -0.00327368 16.7069 0.0592201 16.8801L0.0847082 16.9538C0.597301 18.3783 1.35345 19.6952 2.33898 20.8535L2.38996 20.9129C2.50906 21.053 2.66779 21.1536 2.84524 21.2017C3.02269 21.2497 3.21052 21.2428 3.38399 21.182L5.70057 20.3579C6.54451 21.0517 7.48473 21.6011 8.50142 21.9806L8.94888 24.3963C8.98242 24.5774 9.07028 24.744 9.20079 24.8741C9.3313 25.0041 9.49827 25.0913 9.67953 25.1241L9.756 25.1383C11.2431 25.4059 12.7661 25.4059 14.2532 25.1383L14.3297 25.1241C14.5109 25.0913 14.6779 25.0041 14.8084 24.8741C14.9389 24.744 15.0268 24.5774 15.0603 24.3963L15.505 21.9919C16.5301 21.6068 17.476 21.0602 18.3256 20.3635L20.6252 21.182C20.7986 21.2433 20.9866 21.2504 21.1642 21.2024C21.3417 21.1543 21.5004 21.0533 21.6193 20.9129L21.6702 20.8535C22.6558 19.6895 23.4119 18.3783 23.9245 16.9538L23.95 16.8801C24.0718 16.529 23.967 16.1353 23.681 15.8889ZM12.0046 17.3673C9.25473 17.3673 7.02595 15.1385 7.02595 12.3886C7.02595 9.63872 9.25473 7.40993 12.0046 7.40993C14.7545 7.40993 16.9833 9.63872 16.9833 12.3886C16.9833 15.1385 14.7545 17.3673 12.0046 17.3673Z" fill="#C3C5C8"/>
</svg>
